<svg width="30" height="30" viewBox="0 0 30 30" fill="none" xmlns="http://www.w3.org/2000/svg">
<path d="M7.5 1H22.5C26.0899 1 29 3.91015 29 7.5V22.5C29 26.0899 26.0899 29 22.5 29H7.5C3.91015 29 1 26.0899 1 22.5V7.5C1 3.91015 3.91015 1 7.5 1Z" stroke="#DADADA" stroke-width="2" stroke-linecap="round" stroke-linejoin="round"/>
<path d="M20.4166 13.6645C20.5966 14.8781 20.3893 16.1177 19.8242 17.2068C19.2591 18.2958 18.365 19.179 17.269 19.7306C16.173 20.2823 14.931 20.4743 13.7196 20.2794C12.5083 20.0844 11.3892 19.5125 10.5216 18.6449C9.65401 17.7773 9.08207 16.6582 8.88714 15.4468C8.69221 14.2355 8.88422 12.9935 9.43585 11.8975C9.98748 10.8015 10.8706 9.90741 11.9597 9.34231C13.0488 8.7772 14.2884 8.56989 15.502 8.74987C16.7401 8.93345 17.8862 9.51034 18.7712 10.3953C19.6562 11.2803 20.233 12.4264 20.4166 13.6645Z" stroke="#DADADA" stroke-width="2" stroke-linecap="round" stroke-linejoin="round"/>
<path d="M22.6041 6.5625H22.6187" stroke="#DADADA" stroke-width="2" stroke-linecap="round" stroke-linejoin="round"/>
</svg>
