<svg width="50" height="50" viewBox="0 0 50 50" fill="none" xmlns="http://www.w3.org/2000/svg">
<g clip-path="url(#clip0)">
<path d="M17.1875 37.2237C16.9174 37.2237 16.6473 37.1535 16.4063 37.0147C15.9226 36.7355 15.6251 36.2197 15.6251 35.6612V14.0625C15.6251 13.504 15.9226 12.9898 16.4048 12.7106C16.8885 12.4314 17.4836 12.4268 17.9673 12.7091L36.7174 23.5031C37.2011 23.7808 37.5002 24.2981 37.5002 24.8566C37.5002 25.4151 37.2027 25.9308 36.7174 26.2101L17.9673 37.0148C17.7261 37.1536 17.456 37.2237 17.1875 37.2237ZM18.75 16.7648V32.9574L32.8065 24.8565C32.8064 24.8565 18.75 16.7648 18.75 16.7648V16.7648Z" fill="white"/>
<path d="M25.0001 50C11.2152 50 0 38.7848 0 24.9999C0 11.2151 11.2152 0 25.0001 0C38.7849 0 50.0001 11.2152 50.0001 25.0001C50.0001 38.7849 38.7848 50 25.0001 50ZM25.0001 3.12501C12.938 3.12501 3.12501 12.9379 3.12501 25.0001C3.12501 37.0622 12.9379 46.8751 25.0001 46.8751C37.0622 46.8751 46.875 37.0621 46.875 25.0001C46.875 12.938 37.0621 3.12501 25.0001 3.12501V3.12501Z" fill="white"/>
</g>
<defs>
<clipPath id="clip0">
<rect width="50" height="50" fill="white"/>
</clipPath>
</defs>
</svg>
